<?xml version="1.0" standalone="no"?>
<!DOCTYPE svg PUBLIC "-//W3C//DTD SVG 20010904//EN"
 "http://www.w3.org/TR/2001/REC-SVG-20010904/DTD/svg10.dtd">
<svg version="1.0" xmlns="http://www.w3.org/2000/svg"
 width="96.000000pt" height="96.000000pt" viewBox="0 0 96.000000 96.000000"
 preserveAspectRatio="xMidYMid meet">
<metadata>
Created by potrace 1.14, written by Peter Selinger 2001-2017
</metadata>
<g transform="translate(0.000000,96.000000) scale(0.100000,-0.100000)"
fill="#000000" stroke="none">
<path d="M191 930 c-4 -31 -4 -899 0 -920 2 -8 5 30 8 85 l6 100 30 2 c17 0
41 2 55 2 l25 1 -1 228 c0 125 1 232 3 237 6 19 190 7 244 -16 145 -63 187
-237 99 -408 -28 -56 -109 -135 -163 -160 l-42 -19 54 4 c208 17 358 238 306
449 -24 97 -106 195 -198 239 -66 31 -101 35 -274 36 l-142 0 -4 83 c-1 45 -4
71 -6 57z"/>
</g>
</svg>
